<svg width="263" height="47" viewBox="0 0 263 47" fill="none" xmlns="http://www.w3.org/2000/svg">
<path d="M180.359 14L175 45.6507H183.708L185.718 34.4306H194.761L202.129 45.6507H212.344L204.641 33.5933C209.721 30.9179 212.126 29.1759 213.014 24.2153C213.237 16.0463 210.369 15.048 204.641 14H180.359Z" fill="#D9D9D9"/>
<path d="M187 28.3636L188.172 22H202.239C203.875 22.4364 204.478 22.9548 204.249 25.0144C203.856 26.9434 203.193 27.7363 201.067 28.5311L187 28.3636Z" fill="#21325E"/>
<path d="M114.182 1L123.56 13.3923L104.301 13.5598L114.182 1Z" fill="#FF0000" stroke="#FF0000"/>
<path d="M106.479 32.4833L93.9187 13.3924H103.799L111.335 26.1196L124.062 13.3924H133.775L115.019 32.4833L112.842 45.2105H104.134L106.479 32.4833Z" fill="#D9D9D9"/>
<path d="M52.3876 45.2105L58.0814 13.3924H83.3684C89.992 14.9987 91.0974 17.0825 90.5694 21.933C89.2989 25.3118 88.1237 27.0163 83.3684 28.9665C89.6392 30.0113 90.6875 32.0992 90.067 37.3397C88.6041 41.9875 85.8418 44.1398 79.3493 45.2105H52.3876Z" fill="#D9D9D9"/>
<path d="M22.7703 13L1 44.6507H10.378L14.0622 39.4593H31.6459L33.6555 44.6507H43.7034L32.4833 13H22.7703Z" fill="white" stroke="white"/>
<path d="M240.77 14L219 45.6507H228.378L232.062 40.4593H249.646L251.656 45.6507H261.703L250.483 14H240.77Z" fill="white" stroke="white"/>
<path d="M148.77 14L127 45.6507H136.378L140.062 40.4593H157.646L159.656 45.6507H169.703L158.483 14H148.77Z" fill="white" stroke="white"/>
<path d="M30.555 33.3876L26.5359 22L19 33.3876H30.555Z" fill="#21325E"/>
<path d="M248.555 33.3876L244.536 22L237 33.3876H248.555Z" fill="#21325E"/>
<path d="M155.555 33.3876L151.536 22L144 33.3876H155.555Z" fill="#21325E"/>
<path d="M64.7799 25.4498L65.7847 19.756H79.8517C81.5436 20.1694 82.1571 20.8047 82.0287 22.6029C81.7701 24.0576 81.0321 24.5574 79.1818 25.2823L64.7799 25.4498Z" fill="#21325E"/>
<path d="M62.4354 38.512L63.5465 31.8134H79.1009C80.9717 32.2998 81.6501 33.0472 81.5081 35.1627C81.2221 36.8741 80.4061 37.4621 78.3602 38.315L62.4354 38.512Z" fill="#21325E"/>
</svg>
