<svg width="1370" height="200" viewBox="0 0 1370 200" fill="none" xmlns="http://www.w3.org/2000/svg">
<path d="M901.149 49.3301L812.543 176.197H851.476L865.572 154.717H939.41L945.451 176.197H983.041L939.41 49.3301H901.149Z" fill="#D9D9D9"/>
<path d="M914.574 84.2353L929.341 128.538H883.025L914.574 84.2353Z" fill="#21325E"/>
<path d="M678.293 49.3301L656.812 176.197H691.718L699.773 131.223H736.02L765.555 176.197H806.502L775.624 127.867C795.987 117.143 805.625 110.16 809.187 90.2765C810.079 57.5323 798.582 53.5308 775.624 49.3301H678.293Z" fill="#D9D9D9"/>
<path d="M704.472 103.03L709.171 77.5227H765.556C772.113 79.272 774.529 81.3496 773.611 89.6052C772.037 97.3374 769.378 100.516 760.857 103.701L704.472 103.03Z" fill="#21325E"/>
<path d="M521.22 153.374L505.781 176.868H467.52L556.125 49.3301H594.386L638.018 177.539H599.756L591.701 153.374H521.22Z" fill="#D9D9D9"/>
<path d="M568.879 83.5639L582.975 127.195H540.015L568.879 83.5639Z" fill="#21325E"/>
<path d="M434.629 1L472.219 50.6726L395.025 51.3439L434.629 1Z" fill="#FF0000" stroke="#FF0000"/>
<path d="M403.751 127.195L353.407 50.6727H393.011L423.217 101.688L474.233 50.6727H513.165L437.985 127.195L429.259 178.211H394.354L403.751 127.195Z" fill="#D9D9D9"/>
<path d="M186.936 178.211L209.759 50.6727H311.118C337.667 57.1114 342.098 65.4639 339.982 84.9065C334.889 98.4497 330.178 105.282 311.118 113.099C336.253 117.287 340.455 125.656 337.968 146.662C332.104 165.291 321.032 173.919 295.008 178.211H186.936Z" fill="#D9D9D9"/>
<path d="M88.2627 50.6727L1 177.539H38.5901L53.3576 156.73H123.839L131.894 177.539H172.169L127.195 50.6727H88.2627Z" fill="white" stroke="black"/>
<path d="M117.798 129.88L101.688 84.2353L71.4814 129.88H117.798Z" fill="#21325E" stroke="black"/>
<path d="M236.609 99.0028L240.636 76.1802H297.022C303.803 77.8374 306.263 80.3837 305.748 87.5915C304.711 93.4224 301.753 95.4259 294.337 98.3316L236.609 99.0028Z" fill="#21325E"/>
<path d="M227.211 151.36L231.665 124.51H294.012C301.511 126.46 304.23 129.456 303.661 137.935C302.515 144.795 299.244 147.152 291.043 150.571L227.211 151.36Z" fill="#21325E"/>
<path d="M1087 62.653V38.153H1186V55.153L1142.5 98.653C1183.5 103.153 1193 119.153 1193.5 140.153C1194 161.153 1175.5 186.153 1140.5 187.653C1112.5 188.853 1088.5 176.82 1080 170.653L1091.5 148.653C1112.3 164.253 1132.83 164.82 1140.5 163.153C1148.5 162.32 1164.7 156.553 1165.5 140.153C1166.3 123.753 1149.17 118.653 1140.5 118.153H1110V99.653L1148.5 62.153L1087 62.653Z" fill="#FF0000"/>
<path d="M1329 138.153L1299 138.653C1295 159.053 1276.33 165.153 1267.5 165.653C1244.7 167.653 1235.33 141.153 1233.5 127.653C1226.7 76.453 1249.67 60.3196 1262 58.653C1294.4 58.653 1301.5 81.9863 1301 93.653H1329C1324.2 41.253 1282.33 34.4863 1262 37.653C1202.8 43.653 1200.5 104 1205.5 131.5C1213.41 175 1233 190.653 1276.5 187.653C1311.3 185.253 1326 153.653 1329 138.153Z" fill="#FF0000"/>
<path d="M1042 13V199.5" stroke="white" stroke-width="4"/>
<path d="M1258.79 129H1253.16L1268.23 99.9091H1274.74L1280.16 129H1274.54L1270.63 105.875H1270.41L1258.79 129ZM1260.86 117.594H1276.2L1275.49 121.827H1260.15L1260.86 117.594ZM1312.73 99.9091L1307.9 129H1303.22L1292.8 109.185H1292.58L1289.27 129H1284L1288.83 99.9091H1293.54L1303.94 119.739H1304.21L1307.49 99.9091H1312.73ZM1342 114.795C1341.49 117.883 1340.48 120.515 1338.97 122.693C1337.48 124.862 1335.65 126.524 1333.49 127.679C1331.34 128.825 1329.02 129.398 1326.54 129.398C1323.94 129.398 1321.7 128.792 1319.84 127.58C1317.97 126.358 1316.63 124.611 1315.8 122.338C1314.99 120.065 1314.85 117.338 1315.38 114.156C1315.89 111.079 1316.89 108.446 1318.39 106.259C1319.89 104.071 1321.72 102.4 1323.89 101.244C1326.05 100.089 1328.39 99.5114 1330.9 99.5114C1333.49 99.5114 1335.7 100.122 1337.55 101.344C1339.41 102.556 1340.74 104.303 1341.56 106.585C1342.38 108.867 1342.53 111.604 1342 114.795ZM1336.81 114.156C1337.16 112.007 1337.13 110.193 1336.71 108.716C1336.31 107.239 1335.58 106.126 1334.54 105.378C1333.5 104.62 1332.21 104.241 1330.69 104.241C1329.04 104.241 1327.52 104.653 1326.12 105.477C1324.72 106.292 1323.54 107.485 1322.57 109.057C1321.6 110.629 1320.94 112.542 1320.58 114.795C1320.2 116.955 1320.22 118.768 1320.65 120.236C1321.07 121.704 1321.81 122.812 1322.86 123.56C1323.91 124.298 1325.2 124.668 1326.71 124.668C1328.35 124.668 1329.87 124.26 1331.26 123.446C1332.65 122.632 1333.83 121.443 1334.8 119.881C1335.77 118.318 1336.44 116.41 1336.81 114.156ZM1363.9 108.048C1363.93 106.732 1363.53 105.723 1362.69 105.023C1361.86 104.322 1360.66 103.972 1359.1 103.972C1358 103.972 1357.03 104.137 1356.18 104.469C1355.35 104.791 1354.68 105.241 1354.17 105.818C1353.66 106.386 1353.34 107.035 1353.22 107.764C1353.11 108.361 1353.16 108.882 1353.37 109.327C1353.58 109.772 1353.9 110.151 1354.32 110.463C1354.76 110.776 1355.25 111.036 1355.8 111.244C1356.36 111.453 1356.93 111.628 1357.5 111.77L1360.12 112.452C1361.16 112.707 1362.15 113.053 1363.1 113.489C1364.05 113.915 1364.87 114.464 1365.56 115.136C1366.26 115.799 1366.77 116.599 1367.09 117.537C1367.42 118.474 1367.47 119.573 1367.25 120.832C1366.97 122.537 1366.28 124.038 1365.19 125.335C1364.11 126.623 1362.69 127.632 1360.93 128.361C1359.18 129.08 1357.14 129.44 1354.81 129.44C1352.55 129.44 1350.65 129.09 1349.1 128.389C1347.54 127.679 1346.41 126.652 1345.69 125.307C1344.98 123.962 1344.75 122.329 1345 120.406H1350.19C1350.09 121.42 1350.25 122.262 1350.69 122.935C1351.13 123.607 1351.77 124.109 1352.6 124.44C1353.44 124.772 1354.4 124.938 1355.5 124.938C1356.65 124.938 1357.68 124.767 1358.61 124.426C1359.54 124.076 1360.3 123.593 1360.89 122.977C1361.48 122.352 1361.85 121.623 1361.98 120.79C1362.11 120.042 1362 119.417 1361.65 118.915C1361.3 118.413 1360.76 117.996 1360.02 117.665C1359.29 117.324 1358.42 117.021 1357.41 116.756L1354.25 115.903C1351.97 115.278 1350.24 114.341 1349.05 113.091C1347.88 111.841 1347.46 110.174 1347.8 108.091C1348.09 106.367 1348.8 104.866 1349.95 103.588C1351.09 102.3 1352.53 101.301 1354.25 100.591C1355.98 99.8712 1357.86 99.5114 1359.91 99.5114C1361.97 99.5114 1363.72 99.8712 1365.15 100.591C1366.59 101.311 1367.64 102.314 1368.3 103.602C1368.97 104.881 1369.2 106.363 1368.97 108.048H1363.9Z" fill="white"/>
<path d="M1021.28 174.993L1017.61 174.397L1000.55 160.762V157.705L1005.77 158.575V160.426L1017.29 169.624L1017.49 169.649V154.56L1021.28 155.194V174.993ZM1026 163.646L1020.15 162.676L1018.52 162.341L1000.55 159.37V155.02L1026 159.246V163.646ZM1026 152.018L1022.67 151.459L1014.01 141.193C1013.15 140.207 1012.39 139.378 1011.73 138.707C1011.06 138.027 1010.42 137.493 1009.81 137.104C1009.18 136.714 1008.52 136.461 1007.82 136.345C1007.01 136.213 1006.32 136.279 1005.74 136.544C1005.16 136.809 1004.72 137.232 1004.41 137.812C1004.1 138.384 1003.94 139.076 1003.94 139.888C1003.94 140.724 1004.11 141.491 1004.46 142.187C1004.8 142.883 1005.29 143.463 1005.93 143.927C1006.56 144.383 1007.3 144.681 1008.16 144.822V149.209C1006.55 148.944 1005.14 148.339 1003.95 147.395C1002.76 146.45 1001.83 145.269 1001.18 143.852C1000.52 142.436 1000.2 140.886 1000.2 139.204C1000.2 137.497 1000.52 136.055 1001.15 134.879C1001.79 133.694 1002.67 132.84 1003.78 132.318C1004.89 131.788 1006.16 131.643 1007.58 131.883C1008.53 132.049 1009.47 132.393 1010.39 132.915C1011.3 133.429 1012.32 134.237 1013.45 135.339C1014.57 136.441 1015.92 137.949 1017.51 139.863L1021.97 144.971L1022.15 145.008V133.934L1026 134.568V152.018ZM1026 129.348L1004.57 114.968L1004.4 114.918V127.496L1000.55 126.862V109.524L1004.49 110.182L1026 124.563V129.348ZM1026.35 100.777C1026.34 102.028 1026.12 103.213 1025.69 104.331C1025.26 105.442 1024.56 106.39 1023.59 107.178C1022.61 107.965 1021.31 108.508 1019.7 108.806C1018.08 109.096 1016.09 109.042 1013.73 108.644C1011.58 108.28 1009.67 107.733 1008 107.004C1006.33 106.274 1004.91 105.388 1003.75 104.344C1002.58 103.3 1001.7 102.127 1001.1 100.826C1000.5 99.5255 1000.2 98.1211 1000.2 96.613C1000.2 95.0138 1000.51 93.6342 1001.14 92.4742C1001.76 91.3141 1002.62 90.4317 1003.7 89.8268C1004.78 89.2136 1006.01 88.9278 1007.38 88.9692V93.4188C1006.4 93.4436 1005.62 93.7502 1005.04 94.3385C1004.47 94.9268 1004.19 95.7678 1004.19 96.8616C1004.19 98.6431 1004.96 100.168 1006.5 101.435C1008.03 102.703 1010.18 103.582 1012.95 104.07L1012.69 103.872C1011.96 103.341 1011.34 102.72 1010.84 102.007C1010.33 101.295 1009.95 100.524 1009.68 99.6954C1009.42 98.8585 1009.28 97.9968 1009.28 97.1102C1009.28 95.5773 1009.66 94.2598 1010.4 93.1578C1011.14 92.0557 1012.15 91.2561 1013.43 90.759C1014.72 90.2535 1016.19 90.1417 1017.83 90.4234C1019.47 90.6968 1020.93 91.3141 1022.22 92.2753C1023.51 93.2282 1024.52 94.4338 1025.25 95.8921C1025.99 97.3505 1026.36 98.9787 1026.35 100.777ZM1022.62 100.615C1022.62 99.6871 1022.39 98.8129 1021.94 97.9926C1021.47 97.164 1020.85 96.468 1020.06 95.9046C1019.27 95.3328 1018.39 94.9724 1017.42 94.8232C1016.55 94.6907 1015.77 94.757 1015.07 95.0221C1014.37 95.2873 1013.82 95.7181 1013.41 96.3147C1013 96.9113 1012.8 97.6446 1012.8 98.5146C1012.8 99.2107 1012.94 99.886 1013.21 100.541C1013.48 101.195 1013.86 101.792 1014.34 102.33C1014.81 102.861 1015.36 103.304 1015.98 103.66C1016.6 104.017 1017.27 104.253 1017.97 104.369C1018.82 104.501 1019.6 104.435 1020.31 104.17C1021 103.896 1021.56 103.457 1021.99 102.852C1022.41 102.239 1022.62 101.493 1022.62 100.615ZM1026.35 78.0814C1026.34 79.3326 1026.12 80.5175 1025.69 81.6361C1025.26 82.7464 1024.56 83.6952 1023.59 84.4823C1022.61 85.2695 1021.31 85.8122 1019.7 86.1105C1018.08 86.4005 1016.09 86.3467 1013.73 85.949C1011.58 85.5844 1009.67 85.0375 1008 84.3083C1006.33 83.5792 1004.91 82.6926 1003.75 81.6485C1002.58 80.6045 1001.7 79.432 1001.1 78.1311C1000.5 76.8302 1000.2 75.4258 1000.2 73.9177C1000.2 72.3185 1000.51 70.9389 1001.14 69.7789C1001.76 68.6188 1002.62 67.7364 1003.7 67.1315C1004.78 66.5183 1006.01 66.2325 1007.38 66.2739V70.7235C1006.4 70.7483 1005.62 71.0549 1005.04 71.6432C1004.47 72.2315 1004.19 73.0725 1004.19 74.1663C1004.19 75.9478 1004.96 77.4724 1006.5 78.7401C1008.03 80.0079 1010.18 80.8862 1012.95 81.3751L1012.69 81.1762C1011.96 80.6459 1011.34 80.0245 1010.84 79.3119C1010.33 78.5993 1009.95 77.8287 1009.68 77.0001C1009.42 76.1632 1009.28 75.3015 1009.28 74.4149C1009.28 72.882 1009.66 71.5645 1010.4 70.4624C1011.14 69.3604 1012.15 68.5608 1013.43 68.0637C1014.72 67.5582 1016.19 67.4463 1017.83 67.7281C1019.47 68.0015 1020.93 68.6188 1022.22 69.58C1023.51 70.5329 1024.52 71.7385 1025.25 73.1968C1025.99 74.6552 1026.36 76.2834 1026.35 78.0814ZM1022.62 77.9198C1022.62 76.9918 1022.39 76.1176 1021.94 75.2973C1021.47 74.4687 1020.85 73.7727 1020.06 73.2093C1019.27 72.6375 1018.39 72.2771 1017.42 72.1279C1016.55 71.9954 1015.77 72.0616 1015.07 72.3268C1014.37 72.5919 1013.82 73.0228 1013.41 73.6194C1013 74.216 1012.8 74.9493 1012.8 75.8193C1012.8 76.5154 1012.94 77.1907 1013.21 77.8453C1013.48 78.4999 1013.86 79.0964 1014.34 79.635C1014.81 80.1653 1015.36 80.6086 1015.98 80.9649C1016.6 81.3212 1017.27 81.5574 1017.97 81.6734C1018.82 81.806 1019.6 81.7397 1020.31 81.4745C1021 81.2011 1021.56 80.7619 1021.99 80.157C1022.41 79.5439 1022.62 78.7981 1022.62 77.9198ZM1011.42 50.8619L1015.12 51.471V62.9181L1011.42 62.309V50.8619ZM1000.55 34.0735V29.4996L1018.51 32.4826C1020.14 32.7478 1021.54 33.3112 1022.72 34.1729C1023.89 35.0264 1024.79 36.1119 1025.42 37.4293C1026.04 38.7385 1026.35 40.2217 1026.35 41.8789C1026.35 43.3787 1026.08 44.6879 1025.55 45.8065C1025.01 46.9251 1024.22 47.7495 1023.17 48.2798C1022.11 48.8101 1020.8 48.9469 1019.24 48.69V44.1658C1019.94 44.2653 1020.54 44.2156 1021.04 44.0167C1021.54 43.8095 1021.92 43.4781 1022.17 43.0224C1022.43 42.5584 1022.56 41.9866 1022.56 41.3072C1022.56 40.5531 1022.4 39.8861 1022.07 39.3061C1021.75 38.7178 1021.28 38.2289 1020.66 37.8395C1020.03 37.45 1019.28 37.1766 1018.38 37.0192L1000.55 34.0735Z" fill="white"/>
</svg>
